<svg width="80" height="80" viewBox="0 0 80 80" fill="none" xmlns="http://www.w3.org/2000/svg">
<path d="M55.625 10.6251C53.1617 10.6184 50.7215 11.1003 48.4455 12.0427C46.1696 12.9852 44.1031 14.3695 42.3656 16.1157L40 18.4844L37.6344 16.1157C35.0121 13.493 31.671 11.7069 28.0336 10.9832C24.3961 10.2596 20.6258 10.6309 17.1994 12.0502C13.773 13.4695 10.8445 15.8731 8.78423 18.9569C6.72398 22.0408 5.62456 25.6663 5.625 29.3751C5.625 38.5001 11.3125 47.9969 22.5312 57.5969C27.672 61.9774 33.225 65.8497 39.1125 69.1594C39.3853 69.306 39.6903 69.3828 40 69.3828C40.3097 69.3828 40.6147 69.306 40.8875 69.1594C46.775 65.8497 52.328 61.9774 57.4687 57.5969C68.6875 47.9969 74.375 38.5001 74.375 29.3751C74.3692 24.404 72.3919 19.6383 68.8769 16.1232C65.3618 12.6081 60.596 10.6308 55.625 10.6251ZM40 65.3469C34.8719 62.3876 9.375 46.7876 9.375 29.3751C9.37514 26.4084 10.2549 23.5085 11.9032 21.0419C13.5514 18.5753 15.894 16.6528 18.6348 15.5175C21.3756 14.3823 24.3915 14.0852 27.3012 14.6639C30.2108 15.2427 32.8835 16.6712 34.9813 18.7688L37.3469 21.1344L33.675 24.8094C33.5007 24.9836 33.3624 25.1904 33.268 25.418C33.1737 25.6456 33.1251 25.8896 33.1251 26.136C33.1251 26.3824 33.1737 26.6264 33.268 26.854C33.3624 27.0816 33.5007 27.2884 33.675 27.4626L41.7812 35.5688L36.175 41.1751C35.8438 41.5305 35.6635 42.0006 35.6721 42.4864C35.6806 42.9721 35.8774 43.4356 36.2209 43.7791C36.5645 44.1226 37.0279 44.3194 37.5137 44.328C37.9994 44.3366 38.4696 44.1563 38.825 43.8251L45.7594 36.8938C45.9337 36.7197 46.072 36.5129 46.1664 36.2853C46.2607 36.0576 46.3093 35.8137 46.3093 35.5672C46.3093 35.3208 46.2607 35.0769 46.1664 34.8492C46.072 34.6216 45.9337 34.4148 45.7594 34.2407L37.6531 26.1344L45.0187 18.7688C47.1165 16.6712 49.7892 15.2427 52.6988 14.6639C55.6085 14.0852 58.6244 14.3823 61.3652 15.5175C64.106 16.6528 66.4486 18.5753 68.0968 21.0419C69.745 23.5085 70.6249 26.4084 70.625 29.3751C70.625 46.7876 45.1281 62.3876 40 65.3469Z" fill="#D72D45"/>
</svg>
