<svg width="32" height="32" viewBox="0 0 32 32" fill="none" xmlns="http://www.w3.org/2000/svg">
<path opacity="0.2" d="M29.5375 10.9625L26.35 24.5C26.318 24.6314 26.26 24.7552 26.1794 24.8638C26.0988 24.9725 25.9973 25.0639 25.8807 25.1326C25.7642 25.2014 25.6351 25.2461 25.501 25.2641C25.3669 25.2821 25.2306 25.2731 25.1 25.2375C19.1413 23.5876 12.8463 23.5876 6.88752 25.2375C6.75699 25.2731 6.62065 25.2821 6.48656 25.2641C6.35246 25.2461 6.22334 25.2014 6.10682 25.1326C5.99029 25.0639 5.88873 24.9725 5.80812 24.8638C5.72752 24.7552 5.66951 24.6314 5.63752 24.5L2.46252 10.9625C2.41876 10.7813 2.42651 10.5915 2.48491 10.4144C2.54331 10.2374 2.65002 10.0802 2.79302 9.96063C2.93601 9.84104 3.10958 9.7638 3.29414 9.73762C3.47871 9.71144 3.66691 9.73737 3.83752 9.81249L10.1625 12.625C10.3917 12.7259 10.6501 12.7383 10.8879 12.6598C11.1257 12.5813 11.326 12.4175 11.45 12.2L15.125 5.57499C15.2115 5.41869 15.3383 5.2884 15.4921 5.19768C15.646 5.10696 15.8214 5.05911 16 5.05911C16.1787 5.05911 16.354 5.10696 16.5079 5.19768C16.6618 5.2884 16.7885 5.41869 16.875 5.57499L20.55 12.2C20.6741 12.4175 20.8743 12.5813 21.1121 12.6598C21.3499 12.7383 21.6083 12.7259 21.8375 12.625L28.1625 9.81249C28.3331 9.73737 28.5213 9.71144 28.7059 9.73762C28.8905 9.7638 29.064 9.84104 29.207 9.96063C29.35 10.0802 29.4567 10.2374 29.5151 10.4144C29.5735 10.5915 29.5813 10.7813 29.5375 10.9625Z" fill="#0A0908"/>
<path d="M29.8375 9.18751C29.5501 8.95135 29.2029 8.79946 28.8344 8.74871C28.4659 8.69796 28.0905 8.75033 27.75 8.90001L21.425 11.7125L17.75 5.08751C17.5744 4.77821 17.3199 4.52098 17.0125 4.34204C16.7051 4.16309 16.3557 4.06882 16 4.06882C15.6443 4.06882 15.295 4.16309 14.9876 4.34204C14.6802 4.52098 14.4257 4.77821 14.25 5.08751L10.575 11.7125L4.25001 8.90001C3.90939 8.74767 3.53295 8.69366 3.16324 8.74407C2.79353 8.79449 2.4453 8.94732 2.15791 9.1853C1.87052 9.42327 1.65543 9.7369 1.53696 10.0907C1.41849 10.4445 1.40136 10.8245 1.48751 11.1875L4.66251 24.725C4.72322 24.9871 4.83651 25.2341 4.99551 25.4511C5.15451 25.6682 5.35591 25.8506 5.58751 25.9875C5.90107 26.1752 6.25957 26.2745 6.62501 26.275C6.80266 26.2747 6.97938 26.2494 7.15001 26.2C12.9373 24.6 19.0502 24.6 24.8375 26.2C25.3659 26.3389 25.9279 26.2625 26.4 25.9875C26.633 25.8524 26.8355 25.6704 26.9947 25.4531C27.1539 25.2358 27.2664 24.9879 27.325 24.725L30.5125 11.1875C30.5977 10.8244 30.5796 10.4446 30.4603 10.0912C30.3411 9.73779 30.1253 9.42477 29.8375 9.18751ZM25.375 24.275C19.2364 22.575 12.7512 22.575 6.61251 24.275L3.43751 10.7375L9.76251 13.5375C10.2164 13.7438 10.7315 13.7709 11.2044 13.6132C11.6774 13.4556 12.0732 13.1249 12.3125 12.6875L16 6.06251L19.6875 12.6875C19.9268 13.1249 20.3226 13.4556 20.7956 13.6132C21.2686 13.7709 21.7837 13.7438 22.2375 13.5375L28.5625 10.7375L25.375 24.275Z" fill="#0A0908"/>
</svg>
