<svg width="64" height="64" viewBox="0 0 64 64" fill="none" xmlns="http://www.w3.org/2000/svg">
<path opacity="0.2" d="M44.0001 8.00001V32L36.0001 26L28.0001 32V8.00001H18.0001C17.2112 7.9967 16.4295 8.14964 15.7 8.44999C14.9706 8.75035 14.3078 9.19218 13.75 9.74999C13.1922 10.3078 12.7504 10.9706 12.45 11.7C12.1497 12.4294 11.9967 13.2111 12.0001 14V54C11.9967 53.2112 12.1497 52.4294 12.45 51.7C12.7504 50.9706 13.1922 50.3078 13.75 49.75C14.3078 49.1922 14.9706 48.7504 15.7 48.45C16.4295 48.1496 17.2112 47.9967 18.0001 48H52.0001V8.00001H44.0001Z" fill="#0A0908"/>
<path d="M52 6H18C15.8803 6.00659 13.8493 6.85157 12.3504 8.35043C10.8516 9.84929 10.0066 11.8803 10 14V56C10 56.5304 10.2107 57.0391 10.5858 57.4142C10.9609 57.7893 11.4696 58 12 58H48C48.5304 58 49.0391 57.7893 49.4142 57.4142C49.7893 57.0391 50 56.5304 50 56C50 55.4696 49.7893 54.9609 49.4142 54.5858C49.0391 54.2107 48.5304 54 48 54H14C14 52.9391 14.4214 51.9217 15.1716 51.1716C15.9217 50.4214 16.9391 50 18 50H52C52.5304 50 53.0391 49.7893 53.4142 49.4142C53.7893 49.0391 54 48.5304 54 48V8C54 7.46957 53.7893 6.96086 53.4142 6.58579C53.0391 6.21071 52.5304 6 52 6ZM30 10H42V28L37.2 24.4C36.8522 24.1441 36.4318 24.0061 36 24.0061C35.5682 24.0061 35.1478 24.1441 34.8 24.4L30 28V10ZM50 46H18C16.5957 46.0033 15.2167 46.3739 14 47.075V14C14 12.9391 14.4214 11.9217 15.1716 11.1716C15.9217 10.4214 16.9391 10 18 10H26V32C26 32.3714 26.1034 32.7355 26.2987 33.0515C26.494 33.3674 26.7734 33.6227 27.1056 33.7889C27.4378 33.955 27.8097 34.0253 28.1796 33.9919C28.5495 33.9586 28.9029 33.8229 29.2 33.6L36 28.5L42.8 33.6C43.1435 33.8647 43.5664 34.0056 44 34C44.3103 33.9934 44.6161 33.9254 44.9 33.8C45.2293 33.6278 45.5055 33.3694 45.6993 33.0523C45.893 32.7353 45.997 32.3716 46 32V10H50V46Z" fill="#0A0908"/>
</svg>
