<svg width="32" height="32" viewBox="0 0 32 32" fill="none" xmlns="http://www.w3.org/2000/svg">
<path opacity="0.2" d="M16 27C16 27 3.5 20 3.5 11.5C3.5 9.99737 4.02062 8.54114 4.97328 7.37908C5.92593 6.21703 7.25178 5.42093 8.72525 5.12624C10.1987 4.83154 11.7288 5.05646 13.0551 5.76272C14.3814 6.46898 15.4221 7.61296 16 9.00001C16.5779 7.61296 17.6186 6.46898 18.9449 5.76272C20.2712 5.05646 21.8013 4.83154 23.2748 5.12624C24.7482 5.42093 26.0741 6.21703 27.0267 7.37908C27.9794 8.54114 28.5 9.99737 28.5 11.5C28.5 20 16 27 16 27Z" fill="#0A0908"/>
<path d="M16 28C15.8294 28.0017 15.6613 27.9586 15.5125 27.875C14.975 27.575 2.5 20.4875 2.5 11.5C2.5 9.92588 2.99528 8.39166 3.91568 7.11467C4.83609 5.83768 6.13495 4.88266 7.62829 4.38488C9.12163 3.8871 10.7337 3.8718 12.2363 4.34115C13.7388 4.8105 15.0555 5.74071 16 7C16.9445 5.74071 18.2612 4.8105 19.7637 4.34115C21.2663 3.8718 22.8784 3.8871 24.3717 4.38488C25.865 4.88266 27.1639 5.83768 28.0843 7.11467C29.0047 8.39166 29.5 9.92588 29.5 11.5C29.5 15.325 27.2875 19.25 22.925 23.175C20.944 24.9559 18.7871 26.5306 16.4875 27.875C16.3387 27.9586 16.1706 28.0017 16 28ZM10 6C8.54131 6 7.14236 6.57946 6.11091 7.61091C5.07946 8.64236 4.5 10.0413 4.5 11.5C4.5 18.4 13.75 24.4625 16 25.8375C18.25 24.4625 27.5 18.4 27.5 11.5C27.5012 10.2285 27.0618 8.99594 26.2566 8.01192C25.4514 7.02791 24.3301 6.35327 23.0835 6.10278C21.837 5.85229 20.5422 6.04143 19.4193 6.63801C18.2965 7.2346 17.4151 8.20178 16.925 9.375C16.8497 9.55841 16.7215 9.71528 16.5568 9.82569C16.3921 9.93609 16.1983 9.99503 16 9.99503C15.8017 9.99503 15.6079 9.93609 15.4432 9.82569C15.2785 9.71528 15.1503 9.55841 15.075 9.375C14.6588 8.37283 13.9541 7.51695 13.0505 6.91604C12.1469 6.31513 11.0852 5.99629 10 6Z" fill="#0A0908"/>
</svg>
