<svg width="289" height="81" viewBox="0 0 289 81" fill="none" xmlns="http://www.w3.org/2000/svg">
<path d="M97.68 59L89.796 44.69H87.582V59H78.348V21.092H93.846C96.834 21.092 99.372 21.614 101.46 22.658C103.584 23.702 105.168 25.142 106.212 26.978C107.256 28.778 107.778 30.794 107.778 33.026C107.778 35.546 107.058 37.796 105.618 39.776C104.214 41.756 102.126 43.16 99.354 43.988L108.102 59H97.68ZM87.582 38.156H93.306C94.998 38.156 96.258 37.742 97.086 36.914C97.95 36.086 98.382 34.916 98.382 33.404C98.382 31.964 97.95 30.83 97.086 30.002C96.258 29.174 94.998 28.76 93.306 28.76H87.582V38.156ZM141.979 43.448C141.979 44.312 141.925 45.212 141.817 46.148H120.919C121.063 48.02 121.657 49.46 122.701 50.468C123.781 51.44 125.095 51.926 126.643 51.926C128.947 51.926 130.549 50.954 131.449 49.01H141.277C140.773 50.99 139.855 52.772 138.523 54.356C137.227 55.94 135.589 57.182 133.609 58.082C131.629 58.982 129.415 59.432 126.967 59.432C124.015 59.432 121.387 58.802 119.083 57.542C116.779 56.282 114.979 54.482 113.683 52.142C112.387 49.802 111.739 47.066 111.739 43.934C111.739 40.802 112.369 38.066 113.629 35.726C114.925 33.386 116.725 31.586 119.029 30.326C121.333 29.066 123.979 28.436 126.967 28.436C129.883 28.436 132.475 29.048 134.743 30.272C137.011 31.496 138.775 33.242 140.035 35.51C141.331 37.778 141.979 40.424 141.979 43.448ZM132.529 41.018C132.529 39.434 131.989 38.174 130.909 37.238C129.829 36.302 128.479 35.834 126.859 35.834C125.311 35.834 123.997 36.284 122.917 37.184C121.873 38.084 121.225 39.362 120.973 41.018H132.529ZM145.014 43.88C145.014 40.784 145.59 38.066 146.742 35.726C147.93 33.386 149.532 31.586 151.548 30.326C153.564 29.066 155.814 28.436 158.298 28.436C160.422 28.436 162.276 28.868 163.86 29.732C165.48 30.596 166.722 31.73 167.586 33.134V28.868H176.82V59H167.586V54.734C166.686 56.138 165.426 57.272 163.806 58.136C162.222 59 160.368 59.432 158.244 59.432C155.796 59.432 153.564 58.802 151.548 57.542C149.532 56.246 147.93 54.428 146.742 52.088C145.59 49.712 145.014 46.976 145.014 43.88ZM167.586 43.934C167.586 41.63 166.938 39.812 165.642 38.48C164.382 37.148 162.834 36.482 160.998 36.482C159.162 36.482 157.596 37.148 156.3 38.48C155.04 39.776 154.41 41.576 154.41 43.88C154.41 46.184 155.04 48.02 156.3 49.388C157.596 50.72 159.162 51.386 160.998 51.386C162.834 51.386 164.382 50.72 165.642 49.388C166.938 48.056 167.586 46.238 167.586 43.934ZM181.664 43.88C181.664 40.784 182.24 38.066 183.392 35.726C184.58 33.386 186.182 31.586 188.198 30.326C190.214 29.066 192.464 28.436 194.948 28.436C196.928 28.436 198.728 28.85 200.348 29.678C202.004 30.506 203.3 31.622 204.236 33.026V19.04H213.47V59H204.236V54.68C203.372 56.12 202.13 57.272 200.51 58.136C198.926 59 197.072 59.432 194.948 59.432C192.464 59.432 190.214 58.802 188.198 57.542C186.182 56.246 184.58 54.428 183.392 52.088C182.24 49.712 181.664 46.976 181.664 43.88ZM204.236 43.934C204.236 41.63 203.588 39.812 202.292 38.48C201.032 37.148 199.484 36.482 197.648 36.482C195.812 36.482 194.246 37.148 192.95 38.48C191.69 39.776 191.06 41.576 191.06 43.88C191.06 46.184 191.69 48.02 192.95 49.388C194.246 50.72 195.812 51.386 197.648 51.386C199.484 51.386 201.032 50.72 202.292 49.388C203.588 48.056 204.236 46.238 204.236 43.934ZM235.271 36.536H230.303V59H221.069V36.536H217.721V28.868H221.069V28.004C221.069 24.296 222.131 21.488 224.255 19.58C226.379 17.636 229.493 16.664 233.597 16.664C234.281 16.664 234.785 16.682 235.109 16.718V24.548C233.345 24.44 232.103 24.692 231.383 25.304C230.663 25.916 230.303 27.014 230.303 28.598V28.868H235.271V36.536ZM269.364 28.868V59H260.13V54.896C259.194 56.228 257.916 57.308 256.296 58.136C254.712 58.928 252.948 59.324 251.004 59.324C248.7 59.324 246.666 58.82 244.902 57.812C243.138 56.768 241.77 55.274 240.798 53.33C239.826 51.386 239.34 49.1 239.34 46.472V28.868H248.52V45.23C248.52 47.246 249.042 48.812 250.086 49.928C251.13 51.044 252.534 51.602 254.298 51.602C256.098 51.602 257.52 51.044 258.564 49.928C259.608 48.812 260.13 47.246 260.13 45.23V28.868H269.364ZM285.23 19.04V59H275.996V19.04H285.23Z" fill="#0A0908"/>
<path d="M62.125 13.875H41.4167C39.2263 13.8824 37.1171 14.705 35.5 16.1825C33.883 14.705 31.7738 13.8824 29.5834 13.875H8.87502C8.09042 13.875 7.33796 14.1867 6.78316 14.7415C6.22837 15.2963 5.91669 16.0487 5.91669 16.8333V61.2083C5.91669 61.9929 6.22837 62.7454 6.78316 63.3002C7.33796 63.855 8.09042 64.1667 8.87502 64.1667H25.9091C27.4652 64.1667 28.9917 64.7998 30.0922 65.9003L33.4085 69.2165C33.4351 69.2432 33.4706 69.252 33.4972 69.2787C33.7516 69.5124 34.0356 69.7195 34.367 69.8585H34.3729C35.0946 70.1573 35.9054 70.1573 36.6271 69.8585H36.6331C36.9644 69.7195 37.2484 69.5124 37.5028 69.2787C37.5294 69.252 37.5649 69.2432 37.5916 69.2165L40.9079 65.9003C42.0199 64.7947 43.5228 64.1718 45.0909 64.1667H62.125C62.9096 64.1667 63.6621 63.855 64.2169 63.3002C64.7717 62.7454 65.0834 61.9929 65.0834 61.2083V16.8333C65.0834 16.0487 64.7717 15.2963 64.2169 14.7415C63.6621 14.1867 62.9096 13.875 62.125 13.875ZM25.9091 58.25H11.8334V19.7917H29.5834C31.2164 19.7917 32.5417 21.12 32.5417 22.75V60.2883C30.5817 58.9666 28.2731 58.2572 25.9091 58.25ZM59.1667 58.25H45.0909C42.7272 58.25 40.4049 58.9778 38.4584 60.2883V22.75C38.4584 21.12 39.7837 19.7917 41.4167 19.7917H59.1667V58.25Z" fill="#0A0908"/>
</svg>
